<svg width="62" height="62" xmlns="http://www.w3.org/2000/svg" xmlns:xlink="http://www.w3.org/1999/xlink" overflow="hidden"><defs><clipPath id="clip0"><rect x="609" y="635" width="62" height="62"/></clipPath></defs><g clip-path="url(#clip0)" transform="translate(-609 -635)"><path d="M639.396 653.935C642.947 651.239 643.64 646.174 640.944 642.623 638.248 639.072 633.184 638.379 629.632 641.075 626.081 643.771 625.388 648.835 628.084 652.386 628.528 652.97 629.048 653.491 629.632 653.935L629.632 652.215C627.033 649.519 627.111 645.226 629.807 642.626 632.503 640.027 636.796 640.105 639.396 642.801 641.928 645.427 641.928 649.588 639.396 652.215Z"/><path d="M625.496 661.568C623.567 661.992 622.348 663.9 622.773 665.829 622.774 665.833 622.775 665.838 622.776 665.842L626.304 681.694C626.486 682.514 626.953 683.244 627.621 683.753L633.868 688.549 633.868 692.656 635.159 692.656 635.159 688.23C635.159 688.03 635.066 687.84 634.907 687.718L628.405 682.727C627.979 682.402 627.682 681.937 627.566 681.413L624.036 665.56C623.78 664.319 624.579 663.105 625.82 662.849 627.034 662.599 628.227 663.358 628.515 664.564L630.932 675.414C631.013 675.764 631.362 675.982 631.712 675.901 632.012 675.832 632.222 675.562 632.215 675.254L632.215 647.573C632.236 646.304 633.283 645.292 634.552 645.313 635.791 645.334 636.791 646.334 636.812 647.573L636.812 662.104C636.808 662.451 637.072 662.741 637.417 662.771 637.773 662.794 638.08 662.525 638.104 662.169 638.105 662.154 638.105 662.14 638.105 662.125 638.107 660.533 639.399 659.245 640.99 659.247 642.334 659.248 643.499 660.179 643.797 661.49 643.876 661.837 644.222 662.055 644.57 661.976 644.684 661.95 644.789 661.893 644.873 661.812 646.02 660.709 647.844 660.744 648.947 661.891 649.463 662.427 649.751 663.142 649.752 663.886 649.752 663.969 649.747 664.052 649.738 664.134 649.692 664.488 649.942 664.812 650.296 664.857 650.483 664.881 650.672 664.822 650.812 664.695 651.989 663.626 653.81 663.713 654.879 664.89 655.361 665.42 655.627 666.11 655.627 666.827L655.627 677.394C655.627 681.716 654.157 683.601 652.86 685.264 651.863 686.541 650.923 687.748 650.923 689.72L650.923 692.653 652.215 692.653 652.215 689.723C652.215 688.193 652.949 687.25 653.879 686.058 655.235 684.322 656.92 682.161 656.92 677.394L656.92 666.825C656.919 664.521 655.05 662.654 652.746 662.655 652.129 662.655 651.52 662.793 650.962 663.057 650.501 660.798 648.296 659.34 646.037 659.801 645.58 659.894 645.141 660.063 644.74 660.302 643.729 658.23 641.229 657.37 639.157 658.381 638.77 658.57 638.415 658.817 638.104 659.115L638.104 647.573C638.077 645.59 636.448 644.005 634.466 644.031 632.521 644.057 630.95 645.628 630.924 647.573L630.924 669.375C630.924 669.379 630.921 669.382 630.918 669.382 630.914 669.382 630.911 669.379 630.911 669.375L629.776 664.283C629.347 662.352 627.434 661.136 625.503 661.565 625.501 661.565 625.499 661.566 625.497 661.566Z"/></g></svg>